<svg width="24" height="24" viewBox="0 0 24 24" fill="none" xmlns="http://www.w3.org/2000/svg">
<path id="Subtract" fill-rule="evenodd" clip-rule="evenodd" d="M13.2484 4.50663L15.9168 1.83824C17.0935 0.661486 17.6819 0.0731115 18.404 0.00806504C18.5234 -0.00268835 18.6435 -0.00268835 18.7629 0.00806504C19.485 0.0731115 20.0733 0.661488 21.2501 1.83824C22.4269 3.01499 23.0152 3.60337 23.0803 4.32548C23.091 4.44485 23.091 4.56496 23.0803 4.68434C23.0152 5.40644 22.4269 5.99482 21.2501 7.17156L21.2501 7.17157L18.6112 9.81049C16.3908 8.52962 14.5456 6.69831 13.2484 4.50663ZM11.7941 5.96095L2.10648 15.6485C1.68142 16.0736 1.46889 16.2861 1.32915 16.5472C1.18942 16.8083 1.13047 17.103 1.01258 17.6925L0.0638519 22.4361C-0.00267026 22.7687 -0.0359313 22.9351 0.0586767 23.0297C0.153285 23.1243 0.31959 23.091 0.6522 23.0245L5.39585 22.0758L5.39587 22.0758C5.98531 21.9579 6.28003 21.8989 6.54112 21.7592C6.80222 21.6195 7.01475 21.4069 7.43981 20.9819L17.1531 11.2686C14.9836 9.92347 13.1527 8.10534 11.7941 5.96095Z" fill="#B97F48"/>
</svg>
